<?xml version="1.0" standalone="no"?>
<!DOCTYPE svg PUBLIC "-//W3C//DTD SVG 20010904//EN"
 "http://www.w3.org/TR/2001/REC-SVG-20010904/DTD/svg10.dtd">
<svg version="1.0" xmlns="http://www.w3.org/2000/svg"
 width="800.000000pt" height="800.000000pt" viewBox="0 0 800.000000 800.000000"
 preserveAspectRatio="xMidYMid meet">
<metadata>
Created by potrace 1.11, written by Peter Selinger 2001-2013
</metadata>
<g transform="translate(0.000000,800.000000) scale(0.100000,-0.100000)"
fill="#000000" stroke="none">
<path d="M0 4000 l0 -4000 4000 0 4000 0 0 4000 0 4000 -4000 0 -4000 0 0
-4000z m1269 1400 c66 -39 126 -73 134 -76 9 -3 73 28 148 71 l132 76 133 -76
133 -76 3 -157 3 -157 128 -74 c126 -73 127 -74 127 -110 0 -21 -5 -42 -12
-49 -8 -8 -8 -15 1 -26 8 -9 11 -47 9 -111 l-3 -97 -127 -74 -128 -75 -131 76
c-82 48 -136 74 -147 70 -8 -3 -69 -37 -134 -76 -117 -69 -118 -69 -148 -54
-17 9 -43 38 -59 68 -17 28 -34 58 -38 66 -7 10 -15 9 -45 -9 l-38 -22 -30 22
-30 21 0 152 0 152 -135 75 -135 75 0 157 0 157 133 75 c72 41 133 75 134 76
1 0 56 -32 122 -70z m1811 48 c123 -30 242 -129 275 -229 24 -71 18 -188 -14
-252 -32 -65 -112 -150 -210 -222 l-81 -60 165 -3 165 -2 0 -135 0 -135 -420
0 -420 0 0 124 0 123 166 119 c331 236 391 307 318 375 -23 21 -34 24 -107 24
-88 -1 -142 -18 -221 -73 -33 -23 -40 -24 -50 -11 -6 8 -44 54 -83 101 -40 47
-73 90 -73 96 0 15 93 84 155 115 124 62 293 79 435 45z m1065 -8 c222 -76
346 -350 291 -639 -53 -283 -258 -441 -518 -402 -241 37 -388 243 -388 544 0
269 150 477 370 516 72 13 177 4 245 -19z m1915 16 c79 -15 172 -47 203 -70
16 -13 13 -22 -49 -135 -36 -66 -68 -121 -70 -121 -3 0 -24 10 -47 22 -35 19
-58 23 -137 23 -85 0 -100 -3 -141 -27 -49 -29 -74 -59 -85 -103 l-7 -27 52
35 c101 70 241 74 368 12 125 -62 183 -157 183 -300 0 -108 -27 -174 -104
-251 -69 -69 -132 -98 -249 -115 -211 -30 -409 57 -495 219 -53 100 -66 162
-67 312 0 149 17 222 74 312 109 172 335 257 571 214z m-824 -67 c-3 -34 -6
-268 -6 -520 l0 -459 -155 0 -155 0 0 310 c0 171 -3 310 -8 310 -4 0 -41 -34
-82 -75 -41 -41 -79 -75 -85 -75 -5 0 -49 39 -97 87 l-88 88 197 197 198 198
144 0 144 0 -7 -61z m-4123 -1213 c77 -32 112 -114 82 -191 -22 -58 -63 -87
-132 -93 -65 -5 -103 9 -143 55 -25 28 -30 42 -30 87 0 117 112 189 223 142z
m305 -51 l47 -66 5 63 5 63 43 3 42 3 0 -150 0 -151 -40 0 c-38 0 -43 3 -93
72 l-52 72 -3 -72 -3 -72 -44 0 -45 0 0 150 0 150 45 0 c44 0 47 -1 93 -65z
m460 23 l3 -38 -70 0 c-56 0 -71 -3 -71 -15 0 -12 14 -15 65 -15 l65 0 0 -40
0 -40 -65 0 c-51 0 -65 -3 -65 -15 0 -12 14 -15 70 -15 l70 0 0 -40 0 -40
-115 0 -115 0 0 143 c0 79 3 147 7 151 4 3 54 5 112 4 l106 -3 3 -37z m369
-23 c27 -35 51 -64 56 -65 4 0 7 30 7 66 l0 65 43 -3 42 -3 0 -145 0 -145 -42
-3 c-42 -3 -42 -3 -95 70 l-53 73 -3 -73 -3 -72 -44 0 -45 0 0 143 c0 79 3
147 7 150 3 4 23 7 44 7 36 0 42 -5 86 -65z m474 -70 c27 -71 51 -138 55 -147
5 -16 -2 -18 -45 -18 -41 0 -51 4 -56 20 -9 29 -97 29 -116 -1 -11 -16 -23
-20 -60 -17 l-46 3 55 148 55 148 55 -3 55 -3 48 -130z m319 96 c0 -39 -1 -40
-37 -43 l-38 -3 -3 -108 -3 -108 -42 3 -42 3 -3 108 -3 107 -34 0 c-34 0 -35
1 -35 40 l0 40 120 0 120 0 0 -39z m168 -113 l3 -148 -46 0 -45 0 0 151 0 150
43 -3 42 -3 3 -147z m316 129 c97 -55 101 -192 7 -254 -45 -30 -132 -32 -179
-3 -97 59 -95 202 3 257 53 30 118 30 169 0z m291 -49 l50 -67 3 70 3 70 42
-3 42 -3 3 -147 3 -148 -45 0 c-44 0 -45 1 -98 73 l-53 72 -3 -72 -3 -73 -44
0 -45 0 0 143 c0 79 3 147 7 151 4 4 25 6 48 4 37 -3 44 -9 90 -70z m622 46
c69 -52 88 -134 47 -204 -53 -91 -219 -95 -273 -6 -50 80 -20 185 64 222 41
20 129 13 162 -12z m363 -14 l0 -40 -65 0 c-51 0 -65 -3 -65 -15 0 -12 14 -15
65 -15 l65 0 0 -40 0 -40 -65 0 -65 0 0 -55 0 -55 -45 0 -45 0 0 150 0 150
110 0 110 0 0 -40z m443 29 c28 -15 67 -50 67 -61 0 -5 -16 -16 -35 -25 -32
-15 -36 -15 -54 1 -26 24 -70 17 -94 -16 -22 -29 -18 -65 9 -92 17 -18 79 -22
89 -6 4 6 -7 10 -25 10 -30 0 -31 2 -28 38 l3 37 70 0 70 0 0 -65 0 -64 -40
-23 c-55 -31 -139 -32 -186 0 -65 43 -87 128 -51 197 33 63 145 100 205 69z
m403 -139 c29 -80 54 -146 54 -147 0 -2 -22 -3 -50 -3 -39 0 -52 4 -60 20 -8
15 -21 20 -55 20 -34 0 -47 -5 -55 -20 -8 -16 -21 -20 -60 -20 l-49 0 33 93
c19 50 44 118 56 150 l22 58 55 -3 55 -3 54 -145z m266 85 c12 -36 25 -65 29
-65 3 0 16 29 28 65 l24 66 61 -3 61 -3 0 -145 0 -145 -42 -3 -43 -3 0 82 c0
45 -3 79 -7 75 -5 -4 -20 -40 -34 -79 -20 -54 -32 -73 -47 -75 -16 -3 -25 10
-50 75 l-31 78 0 -77 -1 -78 -45 0 -45 0 0 150 0 150 59 0 59 0 24 -65z m516
23 l3 -37 -67 -3 c-43 -2 -69 -8 -72 -15 -3 -10 14 -13 62 -13 l66 0 0 -40 0
-40 -65 0 c-51 0 -65 -3 -65 -15 0 -12 14 -15 70 -15 l70 0 0 -40 0 -40 -115
0 -115 0 0 143 c0 79 3 147 7 151 4 3 54 5 112 4 l106 -3 3 -37z m299 22 c54
-35 57 -128 5 -166 -13 -9 -11 -17 12 -56 14 -25 26 -48 26 -51 0 -4 -22 -7
-50 -7 -49 0 -49 0 -69 45 -11 26 -27 45 -35 45 -12 0 -16 -11 -16 -45 l0 -45
-45 0 -45 0 0 151 0 151 98 -4 c59 -2 105 -9 119 -18z m313 4 c22 -9 40 -20
40 -25 0 -4 -10 -20 -23 -35 -20 -23 -26 -25 -44 -15 -25 13 -83 15 -83 3 0
-5 25 -15 57 -21 67 -16 103 -47 103 -91 0 -66 -45 -100 -130 -100 -51 0 -112
19 -124 39 -4 6 3 24 14 39 l22 29 36 -19 c38 -19 82 -21 83 -3 0 5 -24 16
-53 23 -68 17 -98 45 -98 89 0 46 15 72 53 88 43 19 98 18 147 -1z m-5478
-495 c65 -13 152 -55 208 -100 37 -30 140 -168 140 -188 0 -6 -205 -104 -266
-128 -6 -2 -17 9 -23 25 -17 41 -58 77 -115 103 -85 37 -190 9 -258 -71 -42
-48 -58 -98 -58 -176 0 -158 140 -277 285 -245 60 14 125 64 145 111 7 16 16
30 20 30 8 0 259 -115 266 -122 8 -9 -75 -126 -122 -171 -52 -50 -144 -100
-214 -116 -66 -15 -215 -13 -289 4 -253 60 -411 261 -411 524 0 161 42 265
149 371 72 72 159 120 257 144 72 17 214 20 286 5z m2690 -8 c127 -35 229
-116 291 -230 16 -29 27 -54 25 -56 -2 -3 -62 -31 -133 -65 -116 -54 -131 -58
-140 -43 -21 34 -79 95 -106 108 -47 25 -102 28 -164 11 -166 -49 -230 -267
-120 -412 53 -69 162 -106 245 -84 43 12 119 76 145 123 9 17 16 16 100 -23
50 -23 109 -51 133 -61 l43 -19 -28 -52 c-15 -29 -53 -77 -83 -108 -97 -98
-207 -140 -365 -140 -321 0 -545 203 -562 510 -8 146 34 275 123 379 66 76
197 148 309 171 76 15 217 11 287 -9z m-1907 -286 c-1 -159 -2 -392 -3 -517
l-2 -228 -154 0 -154 0 -4 513 c-2 281 -2 515 0 520 2 4 74 6 160 5 l157 -3 0
-290z m805 285 c191 -25 311 -159 311 -349 0 -149 -54 -244 -179 -317 -2 -1
36 -80 85 -175 48 -96 89 -177 91 -181 2 -5 -77 -8 -175 -8 l-178 0 -69 160
-69 160 -59 0 -58 0 0 -160 0 -160 -153 0 -154 0 -7 510 c-4 281 -4 515 -1
520 8 13 516 12 615 0z m1830 -312 c0 -293 2 -327 19 -364 59 -129 280 -136
349 -11 15 29 17 68 17 362 l0 330 163 3 162 2 0 -312 c0 -172 -5 -344 -10
-383 -26 -178 -148 -306 -331 -350 -82 -19 -265 -19 -347 0 -181 43 -304 169
-332 342 -6 32 -10 203 -10 381 l0 322 160 0 160 0 0 -322z m1185 225 c0 -51
-1 -284 -3 -518 l-2 -425 -153 0 -154 0 -6 511 c-4 281 -5 515 -1 520 3 6 72
8 162 7 l157 -3 0 -92z m975 -48 l0 -145 -140 0 -140 0 0 -375 0 -375 -155 0
-155 0 0 208 c0 115 -3 284 -7 375 l-6 166 -136 3 -136 3 -3 129 c-1 72 0 136
2 143 4 10 92 13 441 13 l435 0 0 -145z"/>
<path d="M1035 5392 c-55 -31 -106 -61 -113 -66 -12 -7 96 -76 219 -141 25
-13 33 -10 143 54 l117 69 -116 67 c-64 37 -124 69 -133 71 -9 2 -62 -22 -117
-54z"/>
<path d="M1558 5383 l-118 -67 63 -36 c34 -20 91 -52 127 -72 l65 -36 118 66
c64 36 117 68 117 71 0 7 -234 141 -246 141 -5 0 -62 -30 -126 -67z"/>
<path d="M1815 5222 l-120 -67 -3 -116 c-4 -174 -10 -171 130 -91 l118 67 0
138 c0 75 -1 137 -2 137 -2 0 -57 -31 -123 -68z"/>
<path d="M1278 5218 l-108 -62 0 -138 0 -139 31 17 c17 8 69 38 115 65 l84 50
0 134 c0 74 -3 135 -7 135 -5 0 -56 -28 -115 -62z"/>
<path d="M942 5124 l3 -85 73 -40 72 -40 0 83 0 83 -75 42 -76 42 3 -85z"/>
<path d="M1480 5121 l0 -79 65 -36 c36 -20 70 -36 76 -36 6 0 9 30 7 77 l-3
78 -65 37 c-36 21 -68 38 -72 38 -5 0 -8 -36 -8 -79z"/>
<path d="M1282 4925 l-123 -73 32 -18 c23 -14 50 -53 100 -144 l69 -125 0 83
c0 45 3 82 6 82 3 0 18 -7 33 -16 26 -15 29 -14 89 21 34 21 65 41 68 46 10
16 -95 195 -121 207 -14 7 -27 12 -28 11 -1 -1 -57 -34 -125 -74z"/>
<path d="M1832 4924 c-61 -36 -110 -69 -107 -74 3 -4 51 -34 107 -66 57 -31
110 -62 119 -67 11 -7 45 7 132 58 65 37 115 70 112 74 -6 10 -232 141 -242
140 -4 0 -59 -29 -121 -65z"/>
<path d="M1525 4884 c58 -108 51 -100 70 -84 9 7 15 29 15 54 0 37 -4 44 -32
60 -18 10 -48 28 -67 39 l-35 21 49 -90z"/>
<path d="M1630 4845 c0 -23 2 -24 21 -15 16 9 18 14 8 26 -17 21 -29 17 -29
-11z"/>
<path d="M2088 4764 c-95 -59 -108 -70 -108 -95 0 -48 -28 -44 -134 16 -54 30
-100 55 -102 55 -2 0 -4 -36 -4 -79 l0 -80 59 -35 c65 -40 81 -44 81 -21 0 9
-22 30 -50 47 -44 27 -50 35 -50 64 0 19 3 34 6 34 3 0 42 -20 85 -44 l79 -45
125 72 c68 40 123 77 121 82 -8 27 -39 16 -173 -67 -18 -11 -33 -17 -33 -15 0
3 46 33 103 68 56 34 103 64 105 65 2 1 2 12 0 23 -3 19 -12 15 -110 -45z"/>
<path d="M1545 4756 l-100 -63 -3 -137 c-1 -75 1 -136 4 -136 4 0 54 30 111
66 l103 66 0 134 c0 74 -3 134 -7 134 -5 0 -53 -29 -108 -64z"/>
<path d="M2073 4642 l-113 -67 0 -77 c0 -43 3 -78 8 -78 4 0 57 29 117 64
l110 64 3 81 c2 44 -1 81 -5 80 -4 0 -59 -31 -120 -67z"/>
<path d="M1230 4592 l0 -62 25 16 c31 20 31 20 0 69 l-24 40 -1 -63z"/>
<path d="M3911 5154 c-43 -36 -61 -104 -61 -229 0 -171 35 -242 123 -252 58
-7 101 16 129 70 21 38 23 56 23 177 0 117 -3 141 -22 182 -36 79 -130 105
-192 52z"/>
<path d="M5768 4823 c-44 -18 -49 -40 -18 -91 35 -57 129 -79 205 -48 116 49
54 157 -90 155 -33 0 -77 -7 -97 -16z"/>
<path d="M1000 4090 c-26 -26 -26 -81 -2 -103 19 -17 68 -22 88 -9 20 13 35
53 28 75 -17 57 -75 76 -114 37z"/>
<path d="M2602 4053 c-16 -53 -16 -53 13 -53 28 0 32 18 12 64 l-13 29 -12
-40z"/>
<path d="M3390 4088 c-24 -26 -26 -65 -4 -96 11 -16 25 -22 54 -22 29 0 43 6
54 22 52 73 -43 161 -104 96z"/>
<path d="M4302 4094 c-28 -20 -31 -83 -4 -107 45 -41 116 -7 114 54 -2 60 -59
89 -110 53z"/>
<path d="M5522 4052 c-16 -52 -16 -52 14 -52 24 0 25 2 19 33 -12 56 -21 61
-33 19z"/>
<path d="M6600 4085 c0 -24 3 -26 38 -23 29 2 37 7 37 23 0 16 -8 21 -37 23
-35 3 -38 1 -38 -23z"/>
<path d="M2850 3315 l0 -75 119 0 c105 0 121 2 145 21 19 15 26 30 26 54 0 24
-7 39 -26 54 -24 19 -40 21 -145 21 l-119 0 0 -75z"/>
</g>
</svg>
