<svg version="1" xmlns="http://www.w3.org/2000/svg" width="1066.667" height="1066.667" viewBox="0 0 800.000000 800.000000"><path d="M0 400v400h800V0H0v400zm126.9-140c6.6 3.9 12.6 7.3 13.4 7.6.9.3 7.3-2.8 14.8-7.1l13.2-7.6 13.3 7.6 13.3 7.6.3 15.7.3 15.7 12.8 7.4c12.6 7.3 12.7 7.4 12.7 11 0 2.1-.5 4.2-1.2 4.9-.8.8-.8 1.5.1 2.6.8.9 1.1 4.7.9 11.1l-.3 9.7-12.7 7.4-12.8 7.5-13.1-7.6c-8.2-4.8-13.6-7.4-14.7-7-.8.3-6.9 3.7-13.4 7.6-11.7 6.9-11.8 6.9-14.8 5.4-1.7-.9-4.3-3.8-5.9-6.8-1.7-2.8-3.4-5.8-3.8-6.6-.7-1-1.5-.9-4.5.9l-3.8 2.2-3-2.2-3-2.1v-30.4l-13.5-7.5-13.5-7.5v-31.4l13.3-7.5c7.2-4.1 13.3-7.5 13.4-7.6.1 0 5.6 3.2 12.2 7zm181.1-4.8c12.3 3 24.2 12.9 27.5 22.9 2.4 7.1 1.8 18.8-1.4 25.2-3.2 6.5-11.2 15-21 22.2l-8.1 6 16.5.3 16.5.2v27h-84V334.3l16.6-11.9c33.1-23.6 39.1-30.7 31.8-37.5-2.3-2.1-3.4-2.4-10.7-2.4-8.8.1-14.2 1.8-22.1 7.3-3.3 2.3-4 2.4-5 1.1-.6-.8-4.4-5.4-8.3-10.1-4-4.7-7.3-9-7.3-9.6 0-1.5 9.3-8.4 15.5-11.5 12.4-6.2 29.3-7.9 43.5-4.5zm106.5.8c22.2 7.6 34.6 35 29.1 63.9-5.3 28.3-25.8 44.1-51.8 40.2-24.1-3.7-38.8-24.3-38.8-54.4 0-26.9 15-47.7 37-51.6 7.2-1.3 17.7-.4 24.5 1.9zm191.5-1.6c7.9 1.5 17.2 4.7 20.3 7 1.6 1.3 1.3 2.2-4.9 13.5-3.6 6.6-6.8 12.1-7 12.1-.3 0-2.4-1-4.7-2.2-3.5-1.9-5.8-2.3-13.7-2.3-8.5 0-10 .3-14.1 2.7-4.9 2.9-7.4 5.9-8.5 10.3l-.7 2.7 5.2-3.5c10.1-7 24.1-7.4 36.8-1.2 12.5 6.2 18.3 15.7 18.3 30 0 10.8-2.7 17.4-10.4 25.1-6.9 6.9-13.2 9.8-24.9 11.5-21.1 3-40.9-5.7-49.5-21.9-5.3-10-6.6-16.2-6.7-31.2 0-14.9 1.7-22.2 7.4-31.2 10.9-17.2 33.5-25.7 57.1-21.4zm-82.4 6.7c-.3 3.4-.6 26.8-.6 52V359h-31v-31c0-17.1-.3-31-.8-31-.4 0-4.1 3.4-8.2 7.5s-7.9 7.5-8.5 7.5c-.5 0-4.9-3.9-9.7-8.7l-8.8-8.8 19.7-19.7 19.8-19.8h28.8l-.7 6.1zM111.3 382.4c7.7 3.2 11.2 11.4 8.2 19.1-2.2 5.8-6.3 8.7-13.2 9.3-6.5.5-10.3-.9-14.3-5.5-2.5-2.8-3-4.2-3-8.7 0-11.7 11.2-18.9 22.3-14.2zm30.5 5.1l4.7 6.6.5-6.3.5-6.3 4.3-.3 4.2-.3V411h-4c-3.8 0-4.3-.3-9.3-7.2l-5.2-7.2-.3 7.2-.3 7.2H128v-30h4.5c4.4 0 4.7.1 9.3 6.5zm46-2.3l.3 3.8h-7c-5.6 0-7.1.3-7.1 1.5s1.4 1.5 6.5 1.5h6.5v8h-6.5c-5.1 0-6.5.3-6.5 1.5s1.4 1.5 7 1.5h7v8h-23v-14.3c0-7.9.3-14.7.7-15.1.4-.3 5.4-.5 11.2-.4l10.6.3.3 3.7zm36.9 2.3c2.7 3.5 5.1 6.4 5.6 6.5.4 0 .7-3 .7-6.6v-6.5l4.3.3 4.2.3v29l-4.2.3c-4.2.3-4.2.3-9.5-7l-5.3-7.3-.3 7.3-.3 7.2H211v-14.3c0-7.9.3-14.7.7-15 .3-.4 2.3-.7 4.4-.7 3.6 0 4.2.5 8.6 6.5zm47.4 7c2.7 7.1 5.1 13.8 5.5 14.7.5 1.6-.2 1.8-4.5 1.8-4.1 0-5.1-.4-5.6-2-.9-2.9-9.7-2.9-11.6.1-1.1 1.6-2.3 2-6 1.7l-4.6-.3 5.5-14.8 5.5-14.8 5.5.3 5.5.3 4.8 13zm31.9-9.6c0 3.9-.1 4-3.7 4.3l-3.8.3-.3 10.8-.3 10.8-4.2-.3-4.2-.3-.3-10.8-.3-10.7h-3.4c-3.4 0-3.5-.1-3.5-4v-4h24v3.9zm16.8 11.3l.3 14.8H312v-30.1l4.3.3 4.2.3.3 14.7zm31.6-12.9c9.7 5.5 10.1 19.2.7 25.4-4.5 3-13.2 3.2-17.9.3-9.7-5.9-9.5-20.2.3-25.7 5.3-3 11.8-3 16.9 0zm29.1 4.9l5 6.7.3-7 .3-7 4.2.3 4.2.3.3 14.7.3 14.8h-4.5c-4.4 0-4.5-.1-9.8-7.3l-5.3-7.2-.3 7.2-.3 7.3H367v-14.3c0-7.9.3-14.7.7-15.1.4-.4 2.5-.6 4.8-.4 3.7.3 4.4.9 9 7zm62.2-4.6c6.9 5.2 8.8 13.4 4.7 20.4-5.3 9.1-21.9 9.5-27.3.6-5-8-2-18.5 6.4-22.2 4.1-2 12.9-1.3 16.2 1.2zM480 385v4h-6.5c-5.1 0-6.5.3-6.5 1.5s1.4 1.5 6.5 1.5h6.5v8h-13v11h-9v-30h22v4zm44.3-2.9c2.8 1.5 6.7 5 6.7 6.1 0 .5-1.6 1.6-3.5 2.5-3.2 1.5-3.6 1.5-5.4-.1-2.6-2.4-7-1.7-9.4 1.6-2.2 2.9-1.8 6.5.9 9.2 1.7 1.8 7.9 2.2 8.9.6.4-.6-.7-1-2.5-1-3 0-3.1-.2-2.8-3.8l.3-3.7h14v12.9l-4 2.3c-5.5 3.1-13.9 3.2-18.6 0-6.5-4.3-8.7-12.8-5.1-19.7 3.3-6.3 14.5-10 20.5-6.9zm40.3 13.9c2.9 8 5.4 14.6 5.4 14.7 0 .2-2.2.3-5 .3-3.9 0-5.2-.4-6-2-.8-1.5-2.1-2-5.5-2s-4.7.5-5.5 2c-.8 1.6-2.1 2-6 2h-4.9l3.3-9.3c1.9-5 4.4-11.8 5.6-15l2.2-5.8 5.5.3 5.5.3 5.4 14.5zm26.6-8.5c1.2 3.6 2.5 6.5 2.9 6.5.3 0 1.6-2.9 2.8-6.5l2.4-6.6 6.1.3 6.1.3v29l-4.2.3-4.3.3v-8.2c0-4.5-.3-7.9-.7-7.5-.5.4-2 4-3.4 7.9-2 5.4-3.2 7.3-4.7 7.5-1.6.3-2.5-1-5-7.5l-3.1-7.8v7.7l-.1 7.8h-9v-30h11.8l2.4 6.5zm51.6-2.3l.3 3.7-6.7.3c-4.3.2-6.9.8-7.2 1.5-.3 1 1.4 1.3 6.2 1.3h6.6v8h-6.5c-5.1 0-6.5.3-6.5 1.5s1.4 1.5 7 1.5h7v8h-23v-14.3c0-7.9.3-14.7.7-15.1.4-.3 5.4-.5 11.2-.4l10.6.3.3 3.7zm29.9-2.2c5.4 3.5 5.7 12.8.5 16.6-1.3.9-1.1 1.7 1.2 5.6 1.4 2.5 2.6 4.8 2.6 5.1 0 .4-2.2.7-5 .7-4.9 0-4.9 0-6.9-4.5-1.1-2.6-2.7-4.5-3.5-4.5-1.2 0-1.6 1.1-1.6 4.5v4.5h-9v-30.2l9.8.4c5.9.2 10.5.9 11.9 1.8zm31.3-.4c2.2.9 4 2 4 2.5 0 .4-1 2-2.3 3.5-2 2.3-2.6 2.5-4.4 1.5-2.5-1.3-8.3-1.5-8.3-.3 0 .5 2.5 1.5 5.7 2.1 6.7 1.6 10.3 4.7 10.3 9.1 0 6.6-4.5 10-13 10-5.1 0-11.2-1.9-12.4-3.9-.4-.6.3-2.4 1.4-3.9l2.2-2.9 3.6 1.9c3.8 1.9 8.2 2.1 8.3.3 0-.5-2.4-1.6-5.3-2.3-6.8-1.7-9.8-4.5-9.8-8.9 0-4.6 1.5-7.2 5.3-8.8 4.3-1.9 9.8-1.8 14.7.1zm-547.8 49.5c6.5 1.3 15.2 5.5 20.8 10 3.7 3 14 16.8 14 18.8 0 .6-20.5 10.4-26.6 12.8-.6.2-1.7-.9-2.3-2.5-1.7-4.1-5.8-7.7-11.5-10.3-8.5-3.7-19-.9-25.8 7.1-4.2 4.8-5.8 9.8-5.8 17.6 0 15.8 14 27.7 28.5 24.5 6-1.4 12.5-6.4 14.5-11.1.7-1.6 1.6-3 2-3 .8 0 25.9 11.5 26.6 12.2.8.9-7.5 12.6-12.2 17.1-5.2 5-14.4 10-21.4 11.6-6.6 1.5-21.5 1.3-28.9-.4-25.3-6-41.1-26.1-41.1-52.4 0-16.1 4.2-26.5 14.9-37.1 7.2-7.2 15.9-12 25.7-14.4 7.2-1.7 21.4-2 28.6-.5zm269 .8c12.7 3.5 22.9 11.6 29.1 23 1.6 2.9 2.7 5.4 2.5 5.6-.2.3-6.2 3.1-13.3 6.5-11.6 5.4-13.1 5.8-14 4.3-2.1-3.4-7.9-9.5-10.6-10.8-4.7-2.5-10.2-2.8-16.4-1.1-16.6 4.9-23 26.7-12 41.2 5.3 6.9 16.2 10.6 24.5 8.4 4.3-1.2 11.9-7.6 14.5-12.3.9-1.7 1.6-1.6 10 2.3 5 2.3 10.9 5.1 13.3 6.1l4.3 1.9-2.8 5.2c-1.5 2.9-5.3 7.7-8.3 10.8-9.7 9.8-20.7 14-36.5 14-32.1 0-54.5-20.3-56.2-51-.8-14.6 3.4-27.5 12.3-37.9 6.6-7.6 19.7-14.8 30.9-17.1 7.6-1.5 21.7-1.1 28.7.9zm-190.7 28.6c-.1 15.9-.2 39.2-.3 51.7L234 536h-30.8l-.4-51.3c-.2-28.1-.2-51.5 0-52 .2-.4 7.4-.6 16-.5l15.7.3v29zM315 433c19.1 2.5 31.1 15.9 31.1 34.9 0 14.9-5.4 24.4-17.9 31.7-.2.1 3.6 8 8.5 17.5 4.8 9.6 8.9 17.7 9.1 18.1.2.5-7.7.8-17.5.8h-17.8l-6.9-16-6.9-16H285v32H254.3l-.7-51c-.4-28.1-.4-51.5-.1-52 .8-1.3 51.6-1.2 61.5 0zm183 31.2c0 29.3.2 32.7 1.9 36.4 5.9 12.9 28 13.6 34.9 1.1 1.5-2.9 1.7-6.8 1.7-36.2v-33l16.3-.3 16.2-.2v31.2c0 17.2-.5 34.4-1 38.3-2.6 17.8-14.8 30.6-33.1 35-8.2 1.9-26.5 1.9-34.7 0-18.1-4.3-30.4-16.9-33.2-34.2-.6-3.2-1-20.3-1-38.1V432h32v32.2zm118.5-22.5c0 5.1-.1 28.4-.3 51.8L616 536H585.3l-.6-51.1c-.4-28.1-.5-51.5-.1-52 .3-.6 7.2-.8 16.2-.7l15.7.3v9.2zm97.5 4.8V461h-28v75h-31v-20.8c0-11.5-.3-28.4-.7-37.5l-.6-16.6-13.6-.3-13.6-.3-.3-12.9c-.1-7.2 0-13.6.2-14.3.4-1 9.2-1.3 44.1-1.3H714v14.5z"/><path d="M103.5 260.8c-5.5 3.1-10.6 6.1-11.3 6.6-1.2.7 9.6 7.6 21.9 14.1 2.5 1.3 3.3 1 14.3-5.4l11.7-6.9-11.6-6.7c-6.4-3.7-12.4-6.9-13.3-7.1-.9-.2-6.2 2.2-11.7 5.4zM155.8 261.7l-11.8 6.7 6.3 3.6c3.4 2 9.1 5.2 12.7 7.2l6.5 3.6 11.8-6.6c6.4-3.6 11.7-6.8 11.7-7.1 0-.7-23.4-14.1-24.6-14.1-.5 0-6.2 3-12.6 6.7zM181.5 277.8l-12 6.7-.3 11.6c-.4 17.4-1 17.1 13 9.1l11.8-6.7v-13.8c0-7.5-.1-13.7-.2-13.7-.2 0-5.7 3.1-12.3 6.8zM127.8 278.2l-10.8 6.2V312.1l3.1-1.7c1.7-.8 6.9-3.8 11.5-6.5l8.4-5v-13.4c0-7.4-.3-13.5-.7-13.5-.5 0-5.6 2.8-11.5 6.2zM94.2 287.6l.3 8.5 7.3 4 7.2 4v-16.6l-7.5-4.2-7.6-4.2.3 8.5zM148 287.9v7.9l6.5 3.6c3.6 2 7 3.6 7.6 3.6.6 0 .9-3 .7-7.7l-.3-7.8-6.5-3.7c-3.6-2.1-6.8-3.8-7.2-3.8-.5 0-.8 3.6-.8 7.9zM128.2 307.5l-12.3 7.3 3.2 1.8c2.3 1.4 5 5.3 10 14.4l6.9 12.5v-8.3c0-4.5.3-8.2.6-8.2s1.8.7 3.3 1.6c2.6 1.5 2.9 1.4 8.9-2.1 3.4-2.1 6.5-4.1 6.8-4.6 1-1.6-9.5-19.5-12.1-20.7-1.4-.7-2.7-1.2-2.8-1.1-.1.1-5.7 3.4-12.5 7.4zM183.2 307.6c-6.1 3.6-11 6.9-10.7 7.4.3.4 5.1 3.4 10.7 6.6 5.7 3.1 11 6.2 11.9 6.7 1.1.7 4.5-.7 13.2-5.8 6.5-3.7 11.5-7 11.2-7.4-.6-1-23.2-14.1-24.2-14-.4 0-5.9 2.9-12.1 6.5zM152.5 311.6c5.8 10.8 5.1 10 7 8.4.9-.7 1.5-2.9 1.5-5.4 0-3.7-.4-4.4-3.2-6-1.8-1-4.8-2.8-6.7-3.9l-3.5-2.1 4.9 9zM163 315.5c0 2.3.2 2.4 2.1 1.5 1.6-.9 1.8-1.4.8-2.6-1.7-2.1-2.9-1.7-2.9 1.1z"/><path d="M208.8 323.6c-9.5 5.9-10.8 7-10.8 9.5 0 4.8-2.8 4.4-13.4-1.6-5.4-3-10-5.5-10.2-5.5-.2 0-.4 3.6-.4 7.9v8l5.9 3.5c6.5 4 8.1 4.4 8.1 2.1 0-.9-2.2-3-5-4.7-4.4-2.7-5-3.5-5-6.4 0-1.9.3-3.4.6-3.4s4.2 2 8.5 4.4l7.9 4.5 12.5-7.2c6.8-4 12.3-7.7 12.1-8.2-.8-2.7-3.9-1.6-17.3 6.7-1.8 1.1-3.3 1.7-3.3 1.5 0-.3 4.6-3.3 10.3-6.8 5.6-3.4 10.3-6.4 10.5-6.5.2-.1.2-1.2 0-2.3-.3-1.9-1.2-1.5-11 4.5zM154.5 324.4l-10 6.3-.3 13.7c-.1 7.5.1 13.6.4 13.6.4 0 5.4-3 11.1-6.6l10.3-6.6v-13.4c0-7.4-.3-13.4-.7-13.4-.5 0-5.3 2.9-10.8 6.4z"/><path d="M207.3 335.8l-11.3 6.7v7.7c0 4.3.3 7.8.8 7.8.4 0 5.7-2.9 11.7-6.4l11-6.4.3-8.1c.2-4.4-.1-8.1-.5-8-.4 0-5.9 3.1-12 6.7zM123 340.8v6.2l2.5-1.6c3.1-2 3.1-2 0-6.9l-2.4-4-.1 6.3zM391.1 284.6c-4.3 3.6-6.1 10.4-6.1 22.9 0 17.1 3.5 24.2 12.3 25.2 5.8.7 10.1-1.6 12.9-7 2.1-3.8 2.3-5.6 2.3-17.7 0-11.7-.3-14.1-2.2-18.2-3.6-7.9-13-10.5-19.2-5.2zM576.8 317.7c-4.4 1.8-4.9 4-1.8 9.1 3.5 5.7 12.9 7.9 20.5 4.8 11.6-4.9 5.4-15.7-9-15.5-3.3 0-7.7.7-9.7 1.6zM100 391c-2.6 2.6-2.6 8.1-.2 10.3 1.9 1.7 6.8 2.2 8.8.9 2-1.3 3.5-5.3 2.8-7.5-1.7-5.7-7.5-7.6-11.4-3.7zM260.2 394.7c-1.6 5.3-1.6 5.3 1.3 5.3 2.8 0 3.2-1.8 1.2-6.4l-1.3-2.9-1.2 4zM339 391.2c-2.4 2.6-2.6 6.5-.4 9.6 1.1 1.6 2.5 2.2 5.4 2.2 2.9 0 4.3-.6 5.4-2.2 5.2-7.3-4.3-16.1-10.4-9.6zM430.2 390.6c-2.8 2-3.1 8.3-.4 10.7 4.5 4.1 11.6.7 11.4-5.4-.2-6-5.9-8.9-11-5.3zM552.2 394.8c-1.6 5.2-1.6 5.2 1.4 5.2 2.4 0 2.5-.2 1.9-3.3-1.2-5.6-2.1-6.1-3.3-1.9zM660 391.5c0 2.4.3 2.6 3.8 2.3 2.9-.2 3.7-.7 3.7-2.3 0-1.6-.8-2.1-3.7-2.3-3.5-.3-3.8-.1-3.8 2.3zM285 468.5v7.5h11.9c10.5 0 12.1-.2 14.5-2.1 1.9-1.5 2.6-3 2.6-5.4 0-2.4-.7-3.9-2.6-5.4-2.4-1.9-4-2.1-14.5-2.1H285v7.5z"/></svg>